<svg id="icons" xmlns="http://www.w3.org/2000/svg" viewBox="0 0 64 64"><defs><style>.cls-1{fill:none;stroke:#5ec1ea;stroke-linecap:round;stroke-linejoin:round;stroke-width:4px;}</style></defs><title>uip-icons-light-blue</title><g id="support"><path class="cls-1" d="M48,17.05l-1-2.51a1.83,1.83,0,0,0-2.16-1.08L42.69,14a1.81,1.81,0,0,1-1.88-.62,19.19,19.19,0,0,0-3.89-3.72,1.79,1.79,0,0,1-.67-2L36.78,5.9a1.81,1.81,0,0,0-1-2.17l-2.5-1.07A1.83,1.83,0,0,0,31,3.42l-1.12,1.9A1.81,1.81,0,0,1,28,6.2a18.56,18.56,0,0,0-2.34-.15,18.81,18.81,0,0,0-3,.25,1.8,1.8,0,0,1-1.86-.91L19.89,3.74a1.83,1.83,0,0,0-2.27-.81l-2.52,1A1.81,1.81,0,0,0,14,6.08l0.56,2.13a1.78,1.78,0,0,1-.62,1.87,19.17,19.17,0,0,0-3.82,4,1.82,1.82,0,0,1-2.05.66l-1.62-.54a1.83,1.83,0,0,0-2.26,1l-1,2.42a1.81,1.81,0,0,0,.76,2.28L5.82,21a1.8,1.8,0,0,1,.89,1.78,18.26,18.26,0,0,0-.15,2.32,18.5,18.5,0,0,0,.25,3A1.79,1.79,0,0,1,5.88,30l-1.66.91a1.81,1.81,0,0,0-.81,2.26l1,2.51a1.83,1.83,0,0,0,2.16,1.08l2.14-.56a1.81,1.81,0,0,1,1.88.61,19.18,19.18,0,0,0,4,3.8,1.79,1.79,0,0,1,.66,2l-0.54,1.61a1.81,1.81,0,0,0,1,2.24"/><path class="cls-1" d="M37.59,30.37c0.06-2.13-.15-5.8-2.37-8a8.71,8.71,0,0,0-9.48-1.63l3.81,3.81,0.31,4.69-4.69-.31L21.36,25.1a8.47,8.47,0,0,0,10,11.54l0,0.06,18,21.61a6.38,6.38,0,0,0,9.42.43h0a6.55,6.55,0,0,0-.14-9.44l-21-18.88Z"/><path class="cls-1" d="M32,40a13.33,13.33,0,0,0-2.06,2,3.09,3.09,0,0,1-2.35,1h0a3.1,3.1,0,0,0-2.27.9l-7.69,7.62a4.62,4.62,0,0,0,0,6.54l2.9,2.92a4.9,4.9,0,0,0,6.77,0l7.56-7.37A4,4,0,0,0,36,50.67h0a4,4,0,0,1,1.17-2.85L38,47"/><polyline class="cls-1" points="46 37 55.45 27.78 56.62 28.96 60.16 21.87 56.6 18.32 49.51 21.87 50.69 23.05 41 33"/></g></svg>